<?xml version="1.0" encoding="utf-8"?>
<!-- Generator: Adobe Illustrator 21.1.0, SVG Export Plug-In . SVG Version: 6.00 Build 0)  -->
<svg version="1.1" id="Layer_1" xmlns="http://www.w3.org/2000/svg" xmlns:xlink="http://www.w3.org/1999/xlink" x="0px" y="0px"
	 viewBox="0 0 800 178" style="enable-background:new 0 0 800 178;" xml:space="preserve">
<style type="text/css">
	.st0{fill:#00C3FF;}
	.st1{fill:#999999;}
</style>
<g>
	<path class="st0" d="M598.7,79.4c7.7-6.9,11.4-15.3,11.4-25.4c0-5.4-1.2-11-3.5-16.2c-2.3-5.3-5.4-9.8-9.3-13.2
		c-3.9-3.5-8.6-5.9-14.1-7.4s-12.9-2.1-22.4-2.1h-21v139.5h31.9c9.5,0,17.4-0.9,23.8-2.6c5.7-1.8,11-5,15.6-9.6
		c7.7-7.5,11.6-16.7,11.6-27.7c0-8.3-2.1-15.6-6.5-21.9C612,86.3,606.1,81.8,598.7,79.4z M560.9,34.3h7.4c7.1,0,12.5,1.7,16.2,5.1
		c3.8,3.5,5.6,8.4,5.6,15c0,6.8-1.8,11.9-5.4,15.3c-3.6,3.5-9.3,5.3-17.3,5.3h-6.6V34.3H560.9z M595,129c-4.5,3.8-11.4,5.6-21,5.6
		h-13.1V92.5h10.7c11.3,0,19.2,2,23.6,6c4.5,4.1,6.8,9.2,6.8,15.2C601.9,119.9,599.6,125,595,129z"/>
	<rect x="650.2" y="14.9" class="st0" width="21" height="139.5"/>
	<polygon class="st0" points="705.5,14.9 705.5,34.8 737.5,34.8 737.5,154.4 758.5,154.4 758.5,34.8 790.6,34.8 790.6,14.9 	"/>
</g>
<g>
	<polygon class="st1" points="145.8,108.1 109.4,8.2 71.3,108.1 35.1,14.9 12.1,14.9 71.5,163.5 108.9,64.4 144.7,163.3 207.1,14.9 
		184.2,14.9 	"/>
	<rect x="236.6" y="14.9" class="st1" width="21" height="139.5"/>
	<polygon class="st1" points="296,14.9 296,34.8 353.2,34.8 284.8,154.4 386.3,154.4 386.3,134.7 319.4,134.7 388,14.9 	"/>
	<g>
		<rect x="413.8" y="14.9" class="st1" width="93.4" height="19.4"/>
		<rect x="413.8" y="75.1" class="st1" width="93.4" height="19.4"/>
		<rect x="413.8" y="135.2" class="st1" width="93.4" height="19.4"/>
	</g>
</g>
</svg>
