<?xml version="1.0" encoding="utf-8"?>
<!-- Generator: Adobe Illustrator 21.1.0, SVG Export Plug-In . SVG Version: 6.00 Build 0)  -->
<svg version="1.1" id="Layer_1" xmlns="http://www.w3.org/2000/svg" xmlns:xlink="http://www.w3.org/1999/xlink" x="0px" y="0px"
	 viewBox="0 0 800 178" style="enable-background:new 0 0 800 178;" xml:space="preserve">
<style type="text/css">
	.st0{fill:#FFFFFF;}
	.st1{fill:#00C3FF;}
</style>
<path class="st0" d="M71.5,118l46.8,46.8l46.8-46.8l-46.8-46.8L71.5,118z M118.3,147.7L88.6,118l29.7-29.7L148,118L118.3,147.7z"/>
<polygon class="st0" points="118.5,60.3 118.3,60.1 118.8,60.3 118.8,60.3 171,112.5 217.8,65.7 171,18.9 153.5,36.3 162.1,44.9 
	171,35.9 200.7,65.7 171.3,95.1 171,94.8 131.3,55.2 131.4,55.2 118.8,42.6 109.8,51.6 109.8,51.6 106.3,55.2 106.3,55.2 96,65.7 
	66.3,95.4 36.6,65.7 66.3,35.9 75.4,45 83.9,36.5 66.3,18.9 19.5,65.7 66.3,112.5 "/>
<polygon class="st0" points="68.6,82.1 118.1,34 168.3,82.2 176.5,73.6 118.1,17.4 60.3,73.6 "/>
<g>
	<path class="st1" d="M652.4,86.9c5.1-4.6,7.6-10.2,7.6-16.9c0-3.6-0.8-7.3-2.3-10.8c-1.5-3.5-3.6-6.5-6.2-8.8
		c-2.6-2.3-5.7-3.9-9.4-4.9c-3.7-1-8.6-1.4-14.9-1.4h-14v92.8h21.2c6.3,0,11.6-0.6,15.8-1.7c3.8-1.2,7.3-3.3,10.4-6.4
		c5.1-5,7.7-11.1,7.7-18.4c0-5.5-1.4-10.4-4.3-14.6C661.2,91.5,657.3,88.5,652.4,86.9z M627.2,56.9h4.9c4.7,0,8.3,1.1,10.8,3.4
		c2.5,2.3,3.7,5.6,3.7,10c0,4.5-1.2,7.9-3.6,10.2c-2.4,2.3-6.2,3.5-11.5,3.5h-4.4V56.9z M649.9,119.9c-3,2.5-7.6,3.7-14,3.7h-8.7
		V95.6h7.1c7.5,0,12.8,1.3,15.7,4c3,2.7,4.5,6.1,4.5,10.1C654.5,113.8,653,117.2,649.9,119.9z"/>
	<rect x="686.6" y="44" class="st1" width="14" height="92.8"/>
	<polygon class="st1" points="723.4,44 723.4,57.2 744.7,57.2 744.7,136.8 758.7,136.8 758.7,57.2 780,57.2 780,44 	"/>
</g>
<g>
	<polygon class="st0" points="351.1,106 326.9,39.5 301.6,106 277.5,44 262.2,44 301.7,142.8 326.6,76.9 350.4,142.7 391.9,44 
		376.7,44 	"/>
	<rect x="411.5" y="44" class="st0" width="14" height="92.8"/>
	<polygon class="st0" points="451,44 451,57.2 489.1,57.2 443.6,136.8 511.1,136.8 511.1,123.7 466.6,123.7 512.2,44 	"/>
	<g>
		<rect x="529.4" y="44" class="st0" width="62.1" height="12.9"/>
		<rect x="529.4" y="84" class="st0" width="62.1" height="12.9"/>
		<rect x="529.4" y="124" class="st0" width="62.1" height="12.9"/>
	</g>
</g>
</svg>
