<?xml version="1.0" encoding="utf-8"?>
<!-- Generator: Adobe Illustrator 21.1.0, SVG Export Plug-In . SVG Version: 6.00 Build 0)  -->
<svg version="1.1" id="Layer_1" xmlns="http://www.w3.org/2000/svg" xmlns:xlink="http://www.w3.org/1999/xlink" x="0px" y="0px"
	 viewBox="0 0 749.5 154" style="enable-background:new 0 0 749.5 154;" xml:space="preserve">
<style type="text/css">
	.st0{fill:#00C3FF;}
	.st1{fill:#FFFFFF;}
</style>
<g>
	<path class="st0" d="M564.7,68.6c7.4-6.7,11.1-14.8,11.1-24.5c0-5.3-1.1-10.5-3.4-15.7c-2.2-5.1-5.2-9.4-9-12.8
		c-3.7-3.3-8.3-5.7-13.7-7.1c-5.3-1.4-12.5-2.1-21.5-2.1h-20.2v134.4h30.7c9.2,0,16.8-0.8,22.9-2.5c5.6-1.7,10.6-4.8,15.1-9.3
		c7.4-7.3,11.1-16.1,11.1-26.6c0-8-2.1-15-6.3-21.1C577.5,75.3,571.9,71,564.7,68.6z M528.4,25.2h7.1c6.8,0,12.1,1.6,15.7,4.9
		c3.6,3.3,5.4,8.1,5.4,14.4c0,6.5-1.8,11.4-5.3,14.8c-3.5,3.3-9,5-16.6,5h-6.4V25.2z M561.1,116.5c-4.3,3.6-11,5.4-20.2,5.4h-12.5
		V81.2h10.3c10.9,0,18.5,1.9,22.7,5.8c4.4,3.9,6.5,8.8,6.5,14.6C567.9,107.6,565.6,112.6,561.1,116.5z"/>
	<rect x="614.3" y="6.5" class="st0" width="20.3" height="134.4"/>
	<polygon class="st0" points="667.5,6.5 667.5,25.6 698.4,25.6 698.4,140.9 718.7,140.9 718.7,25.6 749.5,25.6 749.5,6.5 	"/>
</g>
<g>
	<polygon class="st1" points="128.6,96.4 93.6,0 57,96.4 22,6.5 0,6.5 57.1,149.5 93.1,54.2 127.7,149.5 187.7,6.5 165.7,6.5 	"/>
	<rect x="216.1" y="6.5" class="st1" width="20.3" height="134.4"/>
	<polygon class="st1" points="273.3,6.5 273.3,25.6 328.4,25.6 262.5,140.9 360.3,140.9 360.3,121.9 295.8,121.9 361.8,6.5 	"/>
	<g>
		<rect x="386.8" y="6.5" class="st1" width="89.8" height="18.6"/>
		<rect x="386.8" y="64.4" class="st1" width="89.8" height="18.6"/>
		<rect x="386.8" y="122.3" class="st1" width="89.8" height="18.6"/>
	</g>
</g>
</svg>
